#Comment line ignore any data following # character 
#Hierarchical Translation and Rotation (.htr) file 
[Header]	
#Header keywords are followed by a single value 
FileType HTR		#Single word string
DataType HTRS		#Translation followed by rotation and scale data
FileVersion 1		#integer
NumSegments 84		#integer
NumFrames 2		#integer
DataFrameRate 30		#integer, data frame rate in this file
EulerRotationOrder ZYX
CalibrationUnits mm
RotationUnits Degrees
GlobalAxisofGravity Y
BoneLengthAxis Y
ScaleFactor 1.00
[SegmentNames&Hierarchy]
#CHILD	PARENT
MASTER GLOBAL
root MASTER
chest root
L_mid_tent01 root
R_mid_tent01 root
spine01 root
Bip01_Neck chest
L_humerus chest
R_humerus chest
weapon_bone chest
Bip01_Head Bip01_Neck
eye_left_bone Bip01_Head
eye_right_bone Bip01_Head
L_forearm L_humerus
L_front_hand L_forearm
L_weapon_bone L_forearm
L_front_hand01_01 L_front_hand
L_front_hand02_01 L_front_hand
L_front_hand03_01 L_front_hand
L_front_hand01_02 L_front_hand01_01
L_front_hand02_02 L_front_hand02_01
L_front_hand03_02 L_front_hand03_01
R_forearm R_humerus
R_front_hand R_forearm
R_weapon_bone R_forearm
R_front_hand01_01 R_front_hand
R_front_hand02_01 R_front_hand
R_front_hand03_01 R_front_hand
R_front_hand01_02 R_front_hand01_01
R_front_hand02_02 R_front_hand02_01
R_front_hand03_02 R_front_hand03_01
null_rope01_connect L_mid_tent01
Rope1_Seg01 null_rope01_connect
Rope1_Seg02 Rope1_Seg01
Rope1_Seg03 Rope1_Seg02
Rope1_Seg04 Rope1_Seg03
Rope1_Seg05 Rope1_Seg04
Rope1_Seg06 Rope1_Seg05
Rope1_Seg07 Rope1_Seg06
Rope1_Seg09 Rope1_Seg07
L_mid_hand01 Rope1_Seg09
L_mid_hand02 Rope1_Seg09
L_mid_hand03 Rope1_Seg09
null_rope02_connect R_mid_tent01
Rope2_Seg01 null_rope02_connect
Rope2_Seg02 Rope2_Seg01
Rope2_Seg03 Rope2_Seg02
Rope2_Seg04 Rope2_Seg03
Rope2_Seg05 Rope2_Seg04
Rope2_Seg06 Rope2_Seg05
Rope2_Seg07 Rope2_Seg06
Rope2_Seg09 Rope2_Seg07
R_mid_hand01 Rope2_Seg09
R_mid_hand02 Rope2_Seg09
R_mid_hand03 Rope2_Seg09
spine02 spine01
spine03 spine02
pelvis spine03
null_rope03_connect pelvis
null_rope04_connect pelvis
Rope3_Seg01 null_rope03_connect
Rope3_Seg02 Rope3_Seg01
Rope3_Seg03 Rope3_Seg02
Rope3_Seg04 Rope3_Seg03
Rope3_Seg05 Rope3_Seg04
Rope3_Seg06 Rope3_Seg05
Rope3_Seg07 Rope3_Seg06
Rope3_Seg08 Rope3_Seg07
Rope3_Seg09 Rope3_Seg08
R_rear_hand01 Rope3_Seg09
R_rear_hand02 Rope3_Seg09
R_rear_hand03 Rope3_Seg09
Rope4_Seg01 null_rope04_connect
Rope4_Seg02 Rope4_Seg01
Rope4_Seg03 Rope4_Seg02
Rope4_Seg04 Rope4_Seg03
Rope4_Seg05 Rope4_Seg04
Rope4_Seg06 Rope4_Seg05
Rope4_Seg07 Rope4_Seg06
Rope4_Seg08 Rope4_Seg07
Rope4_Seg09 Rope4_Seg08
L_rear_hand01 Rope4_Seg09
L_rear_hand02 Rope4_Seg09
L_rear_hand03 Rope4_Seg09
[BasePosition]
#SegmentName Tx, Ty, Tz, Rx, Ry, Rz, BoneLength
MASTER 0.000000 0.000000 0.000000 -90.000000 0.000000 0.000000 10.000000 
root 0.000000 0.000000 0.000000 0.000000 0.000000 0.000000 10.000000 
chest 0.000000 0.000000 0.000000 0.000000 0.000000 0.000000 10.000000 
L_mid_tent01 0.000000 0.000000 0.000000 0.000000 0.000000 0.000000 10.000000 
R_mid_tent01 0.000000 0.000000 0.000000 0.000000 0.000000 0.000000 10.000000 
spine01 0.000000 0.000000 0.000000 0.000000 0.000000 0.000000 10.000000 
Bip01_Neck 0.000000 0.000000 0.000000 0.000000 0.000000 0.000000 10.000000 
L_humerus 0.000000 0.000000 0.000000 0.000000 0.000000 0.000000 10.000000 
R_humerus 0.000000 0.000000 0.000000 0.000000 0.000000 0.000000 10.000000 
weapon_bone 0.000000 0.000000 0.000000 0.000000 0.000000 0.000000 10.000000 
Bip01_Head 0.000000 0.000000 0.000000 0.000000 0.000000 0.000000 10.000000 
eye_left_bone 0.000000 0.000000 0.000000 0.000000 0.000000 0.000000 10.000000 
eye_right_bone 0.000000 0.000000 0.000000 0.000000 0.000000 0.000000 10.000000 
L_forearm 0.000000 0.000000 0.000000 0.000000 0.000000 0.000000 10.000000 
L_front_hand 0.000000 0.000000 0.000000 0.000000 0.000000 0.000000 10.000000 
L_weapon_bone 0.000000 0.000000 0.000000 0.000000 0.000000 0.000000 10.000000 
L_front_hand01_01 0.000000 0.000000 0.000000 0.000000 0.000000 0.000000 10.000000 
L_front_hand02_01 0.000000 0.000000 0.000000 0.000000 0.000000 0.000000 10.000000 
L_front_hand03_01 0.000000 0.000000 0.000000 0.000000 0.000000 0.000000 10.000000 
L_front_hand01_02 0.000000 0.000000 0.000000 0.000000 0.000000 0.000000 10.000000 
L_front_hand02_02 0.000000 0.000000 0.000000 0.000000 0.000000 0.000000 10.000000 
L_front_hand03_02 0.000000 0.000000 0.000000 0.000000 0.000000 0.000000 10.000000 
R_forearm 0.000000 0.000000 0.000000 0.000000 0.000000 0.000000 10.000000 
R_front_hand 0.000000 0.000000 0.000000 0.000000 0.000000 0.000000 10.000000 
R_weapon_bone 0.000000 0.000000 0.000000 0.000000 0.000000 0.000000 10.000000 
R_front_hand01_01 0.000000 0.000000 0.000000 0.000000 0.000000 0.000000 10.000000 
R_front_hand02_01 0.000000 0.000000 0.000000 0.000000 0.000000 0.000000 10.000000 
R_front_hand03_01 0.000000 0.000000 0.000000 0.000000 0.000000 0.000000 10.000000 
R_front_hand01_02 0.000000 0.000000 0.000000 0.000000 0.000000 0.000000 10.000000 
R_front_hand02_02 0.000000 0.000000 0.000000 0.000000 0.000000 0.000000 10.000000 
R_front_hand03_02 0.000000 0.000000 0.000000 0.000000 0.000000 0.000000 10.000000 
null_rope01_connect 0.000000 0.000000 0.000000 0.000000 0.000000 0.000000 10.000000 
Rope1_Seg01 0.000000 0.000000 0.000000 0.000000 0.000000 0.000000 10.000000 
Rope1_Seg02 0.000000 0.000000 0.000000 0.000000 0.000000 0.000000 10.000000 
Rope1_Seg03 0.000000 0.000000 0.000000 0.000000 0.000000 0.000000 10.000000 
Rope1_Seg04 0.000000 0.000000 0.000000 0.000000 0.000000 0.000000 10.000000 
Rope1_Seg05 0.000000 0.000000 0.000000 0.000000 0.000000 0.000000 10.000000 
Rope1_Seg06 0.000000 0.000000 0.000000 0.000000 0.000000 0.000000 10.000000 
Rope1_Seg07 0.000000 0.000000 0.000000 0.000000 0.000000 0.000000 10.000000 
Rope1_Seg09 0.000000 0.000000 0.000000 0.000000 0.000000 0.000000 10.000000 
L_mid_hand01 0.000000 0.000000 0.000000 0.000000 0.000000 0.000000 10.000000 
L_mid_hand02 0.000000 0.000000 0.000000 0.000000 0.000000 0.000000 10.000000 
L_mid_hand03 0.000000 0.000000 0.000000 0.000000 0.000000 0.000000 10.000000 
null_rope02_connect 0.000000 0.000000 0.000000 0.000000 0.000000 0.000000 10.000000 
Rope2_Seg01 0.000000 0.000000 0.000000 0.000000 0.000000 0.000000 10.000000 
Rope2_Seg02 0.000000 0.000000 0.000000 0.000000 0.000000 0.000000 10.000000 
Rope2_Seg03 0.000000 0.000000 0.000000 0.000000 0.000000 0.000000 10.000000 
Rope2_Seg04 0.000000 0.000000 0.000000 0.000000 0.000000 0.000000 10.000000 
Rope2_Seg05 0.000000 0.000000 0.000000 0.000000 0.000000 0.000000 10.000000 
Rope2_Seg06 0.000000 0.000000 0.000000 0.000000 0.000000 0.000000 10.000000 
Rope2_Seg07 0.000000 0.000000 0.000000 0.000000 0.000000 0.000000 10.000000 
Rope2_Seg09 0.000000 0.000000 0.000000 0.000000 0.000000 0.000000 10.000000 
R_mid_hand01 0.000000 0.000000 0.000000 0.000000 0.000000 0.000000 10.000000 
R_mid_hand02 0.000000 0.000000 0.000000 0.000000 0.000000 0.000000 10.000000 
R_mid_hand03 0.000000 0.000000 0.000000 0.000000 0.000000 0.000000 10.000000 
spine02 0.000000 0.000000 0.000000 0.000000 0.000000 0.000000 10.000000 
spine03 0.000000 0.000000 0.000000 0.000000 0.000000 0.000000 10.000000 
pelvis 0.000000 0.000000 0.000000 0.000000 0.000000 0.000000 10.000000 
null_rope03_connect 0.000000 0.000000 0.000000 0.000000 0.000000 0.000000 10.000000 
null_rope04_connect 0.000000 0.000000 0.000000 0.000000 0.000000 0.000000 10.000000 
Rope3_Seg01 0.000000 0.000000 0.000000 0.000000 0.000000 0.000000 10.000000 
Rope3_Seg02 0.000000 0.000000 0.000000 0.000000 0.000000 0.000000 10.000000 
Rope3_Seg03 0.000000 0.000000 0.000000 0.000000 0.000000 0.000000 10.000000 
Rope3_Seg04 0.000000 0.000000 0.000000 0.000000 0.000000 0.000000 10.000000 
Rope3_Seg05 0.000000 0.000000 0.000000 0.000000 0.000000 0.000000 10.000000 
Rope3_Seg06 0.000000 0.000000 0.000000 0.000000 0.000000 0.000000 10.000000 
Rope3_Seg07 0.000000 0.000000 0.000000 0.000000 0.000000 0.000000 10.000000 
Rope3_Seg08 0.000000 0.000000 0.000000 0.000000 0.000000 0.000000 10.000000 
Rope3_Seg09 0.000000 0.000000 0.000000 0.000000 0.000000 0.000000 10.000000 
R_rear_hand01 0.000000 0.000000 0.000000 0.000000 0.000000 0.000000 10.000000 
R_rear_hand02 0.000000 0.000000 0.000000 0.000000 0.000000 0.000000 10.000000 
R_rear_hand03 0.000000 0.000000 0.000000 0.000000 0.000000 0.000000 10.000000 
Rope4_Seg01 0.000000 0.000000 0.000000 0.000000 0.000000 0.000000 10.000000 
Rope4_Seg02 0.000000 0.000000 0.000000 0.000000 0.000000 0.000000 10.000000 
Rope4_Seg03 0.000000 0.000000 0.000000 0.000000 0.000000 0.000000 10.000000 
Rope4_Seg04 0.000000 0.000000 0.000000 0.000000 0.000000 0.000000 10.000000 
Rope4_Seg05 0.000000 0.000000 0.000000 0.000000 0.000000 0.000000 10.000000 
Rope4_Seg06 0.000000 0.000000 0.000000 0.000000 0.000000 0.000000 10.000000 
Rope4_Seg07 0.000000 0.000000 0.000000 0.000000 0.000000 0.000000 10.000000 
Rope4_Seg08 0.000000 0.000000 0.000000 0.000000 0.000000 0.000000 10.000000 
Rope4_Seg09 0.000000 0.000000 0.000000 0.000000 0.000000 0.000000 10.000000 
L_rear_hand01 0.000000 0.000000 0.000000 0.000000 0.000000 0.000000 10.000000 
L_rear_hand02 0.000000 0.000000 0.000000 0.000000 0.000000 0.000000 10.000000 
L_rear_hand03 0.000000 0.000000 0.000000 0.000000 0.000000 0.000000 10.000000 
#Beginning of Data. Separated by tabs
#Fr	Tx	Ty	Tz	Rx	Ry	Rz	SF
[MASTER]
26 0.000000 0.000000 0.000000 0.001660 0.001660 0.001660 0.000000
27 0.000000 0.000000 0.000000 0.001660 0.001660 0.001660 0.000000
[root]
26 329.848389 0.000098 1455.483032 -78.201385 -18.282406 -85.262398 1492.390991
27 291.102844 1.921508 1454.319702 -78.515289 -17.135984 -85.305031 1483.168945
[chest]
26 -84.512650 -34.090519 0.000000 2.706092 1.625864 169.493179 91.129311
27 -84.512650 -34.090519 0.000000 2.265871 1.492871 168.804794 91.129311
[L_mid_tent01]
26 27.299143 22.179014 -249.918610 -15.506541 25.187561 35.035263 252.381592
27 27.299137 22.179037 -249.918610 -16.220997 24.078262 32.888603 252.381592
[R_mid_tent01]
26 23.228794 24.509907 226.238495 -178.920517 -25.628212 50.312191 228.744751
27 23.228794 24.509907 226.238495 -177.496597 -25.184277 47.788960 228.744751
[spine01]
26 -0.361383 -0.195265 0.000000 0.001934 0.001330 20.989466 0.410763
27 -0.361383 -0.195265 0.000000 0.001936 0.001328 21.086060 0.410763
[Bip01_Neck]
26 165.484543 71.581718 0.000119 176.643677 -1.657967 43.431911 180.302734
27 165.484543 71.581718 0.000119 176.643677 -1.657967 43.431911 180.302734
[L_humerus]
26 -13.983130 -135.272980 -120.471481 148.460098 62.507111 -156.084335 181.680161
27 -13.983130 -135.272980 -120.471481 143.325699 66.409355 -157.849396 181.680161
[R_humerus]
26 -13.983309 -135.273102 125.287651 -156.877228 -55.936226 -135.683411 184.909012
27 -13.983309 -135.273102 125.287651 -154.855011 -60.952255 -134.953522 184.909012
[weapon_bone]
26 235.964890 -300.705902 0.000000 0.000000 -89.951546 -128.212341 382.234833
27 235.964890 -300.705902 0.000000 0.000000 -89.951546 -128.212341 382.234833
[Bip01_Head]
26 213.444183 185.715515 11.776930 4.886280 3.029239 -43.811676 283.173737
27 213.444168 185.715530 11.776931 4.962490 2.797846 -43.898743 283.173737
[eye_left_bone]
26 -24.626970 125.451866 -64.772606 0.000000 -90.000000 -99.840431 143.318359
27 -24.626970 125.451866 -64.772606 0.000000 -90.000000 -99.840431 143.318359
[eye_right_bone]
26 -24.626970 125.451866 64.327362 0.000000 -89.965736 80.156380 143.117676
27 -24.626970 125.451866 64.327362 0.000000 -89.965736 80.156380 143.117676
[L_forearm]
26 322.776093 0.000000 -0.000119 0.000466 -0.002301 -112.891556 322.776093
27 322.776093 0.000000 -0.000119 0.000519 -0.002289 -115.542038 322.776093
[L_front_hand]
26 241.149185 -0.042021 -3.300071 149.893951 -1.837326 -27.423067 241.171753
27 241.149185 -0.042021 -3.300071 149.893951 -1.837326 -27.423067 241.171753
[L_weapon_bone]
26 156.183838 0.000000 0.000000 0.000014 0.000007 0.000001 156.183838
27 156.183838 0.000000 0.000000 0.000014 0.000007 0.000001 156.183838
[L_front_hand01_01]
26 86.095154 20.947098 -0.655860 -0.366594 -0.477154 75.385574 88.609184
27 86.095154 20.947098 -0.655860 -0.366594 -0.477154 75.385574 88.609184
[L_front_hand02_01]
26 86.935165 -11.437475 24.513514 154.399796 -59.883835 -61.369587 91.046425
27 86.935165 -11.437475 24.513514 154.399796 -59.883835 -61.369587 91.046425
[L_front_hand03_01]
26 86.637497 -14.123976 -20.424902 -153.913879 58.118130 -62.702892 90.126129
27 86.637497 -14.123976 -20.424902 -153.913849 58.118130 -62.702866 90.126129
[L_front_hand01_02]
26 71.020905 -0.000179 0.000030 0.000334 -0.002323 -106.379684 71.020905
27 71.020905 -0.000179 0.000030 0.000334 -0.002323 -106.379684 71.020905
[L_front_hand02_02]
26 71.020927 -0.000119 0.000060 0.000334 -0.002323 -106.379684 71.020927
27 71.020927 -0.000119 0.000060 0.000334 -0.002323 -106.379684 71.020927
[L_front_hand03_02]
26 71.020905 -0.000060 0.000060 0.000334 -0.002323 -106.379684 71.020905
27 71.020905 -0.000060 0.000060 0.000334 -0.002323 -106.379684 71.020905
[R_forearm]
26 322.776428 -0.000060 0.000030 0.208955 0.048312 -104.189301 322.776428
27 322.776428 -0.000060 0.000030 0.206320 0.061538 -107.665169 322.776428
[R_front_hand]
26 238.847015 -0.006795 2.210259 -8.879457 -10.642941 -26.315098 238.857239
27 238.847015 -0.006795 2.210259 -8.879457 -10.642941 -26.315098 238.857239
[R_weapon_bone]
26 155.664093 0.002503 -0.000030 0.003487 0.001180 -90.988930 155.664078
27 155.664093 0.002503 -0.000030 0.003487 0.001180 -90.988930 155.664078
[R_front_hand01_01]
26 87.624611 14.231146 22.918642 -154.633484 -59.950619 61.746037 91.683487
27 87.624611 14.231146 22.918642 -154.633499 -59.950619 61.746044 91.683487
[R_front_hand02_01]
26 89.356956 14.367283 -19.491137 154.602661 58.302849 63.744389 92.579636
27 89.356956 14.367283 -19.491137 154.602661 58.302849 63.744389 92.579636
[R_front_hand03_01]
26 87.286232 -22.307278 -0.143439 0.162155 -0.423168 -75.767906 90.091743
27 87.286232 -22.307278 -0.143439 0.162155 -0.423168 -75.767906 90.091743
[R_front_hand01_02]
26 71.020905 0.000060 0.000119 0.002323 -0.000334 106.381714 71.020905
27 71.020905 0.000060 0.000119 0.002323 -0.000334 106.381714 71.020905
[R_front_hand02_02]
26 71.020844 -0.000030 -0.000119 0.002323 -0.000334 106.381714 71.020836
27 71.020844 -0.000030 -0.000119 0.002323 -0.000334 106.381714 71.020836
[R_front_hand03_02]
26 71.020905 0.000000 0.000030 0.002323 -0.000334 106.381714 71.020905
27 71.020905 0.000000 0.000030 0.002323 -0.000334 106.381714 71.020905
[null_rope01_connect]
26 328.732483 0.000000 -0.000238 -137.751404 -74.668938 -153.134735 328.732483
27 328.732483 0.000000 -0.000238 -139.816147 -74.835335 -150.006729 328.732483
[Rope1_Seg01]
26 0.000041 -0.000047 0.000106 -69.848396 44.619251 -88.853905 0.000123
27 0.000045 -0.000046 0.000110 -65.375931 40.101147 -90.805603 0.000127
[Rope1_Seg02]
26 139.999863 -0.000179 0.000000 19.376547 -6.815325 -9.513470 139.999863
27 139.999863 -0.000179 0.000000 23.503450 -11.124419 -8.574252 139.999863
[Rope1_Seg03]
26 139.999924 0.000060 -0.000060 16.218340 -7.204102 -6.894909 139.999924
27 139.999924 0.000060 -0.000060 15.772906 -8.764684 -6.203534 139.999924
[Rope1_Seg04]
26 139.999924 -0.000060 -0.000119 -8.842217 3.903544 4.674554 139.999924
27 139.999924 -0.000060 -0.000119 -6.432016 1.710271 5.863000 139.999924
[Rope1_Seg05]
26 139.999832 0.000119 -0.000060 -17.415689 8.710834 11.274388 139.999832
27 139.999832 0.000119 -0.000060 -14.203499 7.351803 13.862848 139.999832
[Rope1_Seg06]
26 139.999954 0.000119 -0.000060 -7.073524 2.323941 7.198137 139.999954
27 139.999954 0.000119 -0.000060 -5.819385 1.650132 9.055102 139.999954
[Rope1_Seg07]
26 139.999985 0.000060 0.000000 -4.049794 0.963761 5.210368 139.999985
27 139.999985 0.000060 0.000000 -2.844295 0.325810 5.868508 139.999985
[Rope1_Seg09]
26 121.602913 0.000119 -0.000089 -89.793175 -1.359789 0.847147 121.602913
27 121.602913 0.000119 -0.000089 -89.793175 -1.359789 0.847147 121.602913
[L_mid_hand01]
26 103.859421 1.038730 8.195221 109.056198 -40.604706 -13.201404 104.187431
27 103.859421 1.038730 8.195221 109.056198 -40.604698 -13.201401 104.187431
[L_mid_hand02]
26 105.572853 -4.139662 -10.864139 -146.713593 31.476517 -37.902302 106.211075
27 105.572853 -4.139662 -10.864139 -146.713593 31.476534 -37.902313 106.211075
[L_mid_hand03]
26 104.641464 17.579376 -3.913581 -14.267233 12.322316 43.898396 106.179977
27 104.641464 17.579376 -3.913581 -14.267233 12.322316 43.898396 106.179977
[null_rope02_connect]
26 328.732849 0.000179 -0.000119 -130.866501 50.810135 -9.161324 328.732849
27 328.732849 0.000179 -0.000119 -132.375137 51.478004 -11.626814 328.732849
[Rope2_Seg01]
26 0.000055 0.000103 0.000035 20.153997 2.885745 -41.384174 0.000122
27 0.000058 0.000104 0.000032 22.676138 1.662968 -42.083706 0.000123
[Rope2_Seg02]
26 139.999741 -0.000060 -0.000119 7.553125 2.642444 -3.046853 139.999756
27 139.999741 -0.000060 -0.000119 7.768081 2.593918 -3.263803 139.999756
[Rope2_Seg03]
26 140.000107 0.000030 0.000000 14.176025 2.292816 -3.547184 140.000107
27 140.000107 0.000030 0.000000 12.928637 2.299012 -3.616657 140.000107
[Rope2_Seg04]
26 139.999802 0.000000 -0.000060 43.429756 1.897434 -6.066656 139.999802
27 139.999802 0.000000 -0.000060 30.843557 2.204929 -5.098298 139.999802
[Rope2_Seg05]
26 139.999985 -0.000060 0.000119 -6.482929 0.544444 0.575174 139.999985
27 139.999985 -0.000060 0.000119 -0.421902 -0.847409 0.444950 139.999985
[Rope2_Seg06]
26 139.999893 -0.000030 -0.000119 -41.533878 2.365747 5.546219 139.999893
27 139.999893 -0.000030 -0.000119 -18.403406 -0.793676 4.249567 139.999893
[Rope2_Seg07]
26 139.999893 0.000060 -0.000060 -11.384041 -0.916704 2.856803 139.999893
27 139.999893 0.000060 -0.000060 -4.510806 -1.083805 1.598602 139.999893
[Rope2_Seg09]
26 121.338966 0.000089 -0.000060 33.793236 -1.359788 -0.847141 121.338966
27 121.338966 0.000089 -0.000060 33.793236 -1.359788 -0.847141 121.338966
[R_mid_hand01]
26 104.680779 11.144459 -10.335981 -37.204079 31.906813 37.576260 105.778534
27 104.680779 11.144459 -10.335981 -37.204079 31.906813 37.576260 105.778534
[R_mid_hand02]
26 104.070427 2.443552 8.231699 70.367462 -42.427387 14.067807 104.424065
27 104.070427 2.443552 8.231699 70.367462 -42.427391 14.067809 104.424065
[R_mid_hand03]
26 106.028137 -11.221827 -5.996406 -169.893616 12.226658 -47.211018 106.788818
27 106.028137 -11.221827 -5.996406 -169.893616 12.226658 -47.211018 106.788818
[spine02]
26 129.756927 0.001550 0.000119 0.126690 -4.059644 -9.641791 129.756927
27 129.756927 0.001550 0.000119 0.147880 -4.059066 -9.941314 129.756927
[spine03]
26 78.614067 0.082451 -4.898989 1.758011 3.896623 14.431527 78.766609
27 78.614075 0.082391 -4.898990 1.770561 3.890968 14.617795 78.766617
[pelvis]
26 169.435242 0.051022 0.000000 -0.045327 -0.184148 9.968348 169.435257
27 169.435242 0.051022 0.000000 -0.046550 -0.183761 10.345685 169.435257
[null_rope03_connect]
26 -1.257226 -2.466202 137.391083 35.054611 -75.188606 36.981007 137.418976
27 -1.257226 -2.466202 137.391083 34.322742 -75.567345 36.215912 137.418976
[null_rope04_connect]
26 -1.259640 -2.480268 -137.844437 35.054611 -75.188606 36.981007 137.872513
27 -1.259640 -2.480268 -137.844437 34.322742 -75.567345 36.215912 137.872513
[Rope3_Seg01]
26 0.000010 0.000038 -0.000114 -130.568192 -6.981125 -79.219971 0.000121
27 0.000010 0.000038 -0.000114 -130.546249 -3.360116 -79.552879 0.000121
[Rope3_Seg02]
26 139.999924 -0.000119 0.000060 0.080038 -1.233250 -2.685109 139.999924
27 139.999924 -0.000119 0.000060 0.095484 -1.302200 -2.596296 139.999924
[Rope3_Seg03]
26 139.999924 -0.000119 0.000119 0.073714 -1.515351 -2.828786 139.999924
27 139.999924 -0.000119 0.000119 0.081427 -1.569547 -2.932844 139.999924
[Rope3_Seg04]
26 139.999924 0.000119 0.000000 0.482050 -4.310715 2.889015 139.999924
27 139.999924 0.000119 0.000000 0.422755 -4.711313 2.038577 139.999924
[Rope3_Seg05]
26 139.999924 -0.000238 0.000060 -1.532013 1.192486 -12.076038 139.999924
27 139.999924 -0.000238 0.000060 -1.135409 0.806099 -10.516549 139.999924
[Rope3_Seg06]
26 139.999893 -0.000119 -0.000060 -8.541834 6.598122 -21.553537 139.999893
27 139.999893 -0.000119 -0.000060 -7.032918 6.997094 -19.031944 139.999893
[Rope3_Seg07]
26 139.999771 0.000060 -0.000119 -5.174801 3.922513 -9.304930 139.999771
27 139.999771 0.000060 -0.000119 -3.974990 3.771619 -8.330726 139.999771
[Rope3_Seg08]
26 139.999985 -0.000060 0.000000 -2.830991 2.353688 -4.605127 139.999985
27 139.999985 -0.000060 0.000000 -2.055592 2.124756 -4.163424 139.999985
[Rope3_Seg09]
26 90.185997 -0.000179 -0.000060 89.793228 -1.359877 -0.847183 90.185997
27 90.185997 -0.000179 -0.000060 89.793228 -1.359877 -0.847183 90.185997
[R_rear_hand01]
26 103.366196 -6.073594 -10.757982 -164.755127 19.627697 -40.352161 104.101845
27 103.366196 -6.073594 -10.757982 -164.755127 19.627697 -40.352161 104.101845
[R_rear_hand02]
26 100.509819 12.039542 -7.992327 -30.792645 24.782444 38.141533 101.543350
27 100.509819 12.039542 -7.992327 -30.792652 24.782448 38.141541 101.543350
[R_rear_hand03]
26 101.539970 5.215704 5.435467 82.448349 -41.048256 8.840378 101.819031
27 101.539970 5.215704 5.435467 82.448349 -41.048256 8.840378 101.819031
[Rope4_Seg01]
26 -0.000012 -0.000023 -0.000153 48.977283 -2.542498 -101.755249 0.000155
27 -0.000012 -0.000021 -0.000153 49.041553 1.536213 -99.558250 0.000155
[Rope4_Seg02]
26 139.999985 0.000060 0.000119 0.056490 -5.787806 4.010743 139.999985
27 139.999985 0.000060 0.000119 -0.246366 -4.326230 3.550222 139.999985
[Rope4_Seg03]
26 139.999924 0.000000 -0.000238 0.606366 -8.771914 8.181386 139.999924
27 139.999924 0.000000 -0.000238 -0.152801 -6.819811 6.499614 139.999924
[Rope4_Seg04]
26 139.999985 0.000000 0.000119 1.929632 -13.605066 20.057142 139.999985
27 139.999985 0.000000 0.000119 -0.645799 -12.022534 22.324780 139.999985
[Rope4_Seg05]
26 139.999802 -0.000060 -0.000119 -3.842834 -18.040092 -25.944508 139.999802
27 139.999802 -0.000060 -0.000119 -1.381420 -16.864614 -25.724657 139.999802
[Rope4_Seg06]
26 139.999924 0.000000 0.000060 -12.367378 -6.072670 -16.510540 139.999924
27 139.999924 0.000000 0.000060 -9.284146 -5.110117 -16.808447 139.999924
[Rope4_Seg07]
26 139.999802 0.000000 0.000000 -6.591227 -1.824317 -6.540990 139.999802
27 139.999802 0.000000 0.000000 -4.314794 -1.766623 -6.017913 139.999802
[Rope4_Seg08]
26 139.999924 0.000000 0.000119 -5.708482 -0.556190 -3.536534 139.999924
27 139.999924 0.000000 0.000119 -4.185764 -0.680112 -3.210604 139.999924
[Rope4_Seg09]
26 90.185791 0.000060 0.000060 -135.617828 2.228885 0.850567 90.185791
27 90.185791 0.000060 0.000060 -135.617828 2.228885 0.850567 90.185791
[L_rear_hand01]
26 101.696655 -8.392275 -7.654577 -31.684452 -23.583008 144.025742 102.329041
27 101.696655 -8.392275 -7.654577 -31.684452 -23.583008 144.025742 102.329041
[L_rear_hand02]
26 102.726799 -1.568258 5.773216 82.701553 38.753956 171.553619 102.900848
27 102.726799 -1.568258 5.773216 82.701553 38.753956 171.553619 102.900848
[L_rear_hand03]
26 104.552910 9.721220 -10.420293 -163.975388 -19.004416 -142.009338 105.519653
27 104.552910 9.721220 -10.420293 -163.975388 -19.004416 -142.009338 105.519653
